<?xml version="1.0" encoding="UTF-8" standalone="no"?>
<!DOCTYPE svg PUBLIC "-//W3C//DTD SVG 1.1//EN" "http://www.w3.org/Graphics/SVG/1.1/DTD/svg11.dtd">
<svg width="100%" height="100%" viewBox="0 0 850 850" version="1.1" xmlns="http://www.w3.org/2000/svg" xmlns:xlink="http://www.w3.org/1999/xlink" xml:space="preserve" xmlns:serif="http://www.serif.com/" style="fill-rule:evenodd;clip-rule:evenodd;stroke-linejoin:round;stroke-miterlimit:2;">
    <g id="Artboard1" transform="matrix(1.00784,0,0,1.1325,27.5461,-678.816)">
        <rect x="-27.332" y="599.397" width="843.389" height="750.553" style="fill:none;"/>
        <clipPath id="_clip1">
            <rect x="-27.332" y="599.397" width="843.389" height="750.553"/>
        </clipPath>
        <g clip-path="url(#_clip1)">
            <g transform="matrix(1.03674,0,0,0.922357,22.2793,643.547)">
                <g transform="matrix(1.00214,0,0,1.00242,-67.0113,-36.0728)">
                    <circle cx="425" cy="394.117" r="405.883" style="fill:white;"/>
                </g>
                <g transform="matrix(0.88,0,0,0.88,43.0678,43.08)">
                    <path d="M250.924,423.831C311.233,416.421 368.503,437.519 409.155,476.517C389.579,412.695 326.595,370.093 258.017,378.516C201.882,385.4 157.745,424.601 141.573,475.1C170.593,447.765 208.286,429.055 250.924,423.831Z" style="fill:rgb(18,18,18);fill-rule:nonzero;"/>
                    <path d="M452.036,189.885C495.161,232.446 521.87,291.49 521.87,356.811C521.87,422.131 495.12,481.215 452.036,523.736C522.965,501.342 574.398,435.09 574.398,356.811C574.398,278.531 522.965,212.279 452.036,189.885Z" style="fill:rgb(18,18,18);fill-rule:nonzero;"/>
                    <path d="M293.198,225.48C368.098,217.624 436.432,262.089 461.723,329.435C463.97,317.968 464.489,306.229 463.263,294.608C456.495,230.421 398.941,183.85 334.701,190.613C302.195,194.015 274.229,210.456 255.383,234.147C267.339,229.854 279.985,226.857 293.198,225.48Z" style="fill:rgb(18,18,18);fill-rule:nonzero;"/>
                    <path d="M265.271,317.002C351.48,317.002 425.691,368.109 459.372,441.65C457.264,346.807 379.729,270.512 284.28,270.512C215.622,270.512 156.244,309.996 127.508,367.42C164.715,335.995 212.784,317.002 265.271,317.002Z" style="fill:rgb(18,18,18);fill-rule:nonzero;"/>
                    <path d="M358.898,680.862C536.607,680.862 680.669,536.76 680.669,359C680.669,181.24 536.607,37.138 358.898,37.138C181.189,37.138 37.128,181.24 37.128,359C37.128,536.76 181.189,680.862 358.898,680.862ZM358.898,718C557.112,718 717.796,557.27 717.796,359C717.796,160.73 557.112,0 358.898,0C160.684,0 0,160.73 0,359C0,557.27 160.684,718 358.898,718Z" style="fill:rgb(18,18,18);"/>
                </g>
            </g>
        </g>
    </g>
</svg>
